<svg width="19.000000" height="9.000000" viewBox="0 0 19 9" fill="none" xmlns="http://www.w3.org/2000/svg" xmlns:xlink="http://www.w3.org/1999/xlink">
	<desc>
			Created with Pixso.
	</desc>
	<defs/>
	<path id="Vector" d="M13.74 0.78L13.71 0.78C13.42 0.48 13.42 0.01 13.71 -0.29C14.01 -0.58 14.48 -0.58 14.78 -0.29L14.78 -0.26L13.74 0.78ZM14.78 8.25L14.78 8.28C14.48 8.57 14.01 8.57 13.71 8.28C13.42 7.98 13.42 7.51 13.71 7.21L13.74 7.21L14.78 8.25ZM0.02 4.72L0 4.75C-0.42 4.75 -0.75 4.41 -0.75 4C-0.75 3.58 -0.42 3.25 0 3.25L0.02 3.27L0.02 4.72Z" fill="#242424" fill-opacity="1.000000" fill-rule="nonzero"/>
	<path id="Vector" d="M14.25 0.25L18 4L14.25 7.75M0 4L18 4" stroke="#242424" stroke-opacity="1.000000" stroke-width="1.500000" stroke-linejoin="round"/>
</svg>
